%TF.GenerationSoftware,KiCad,Pcbnew,7.0.10*%
%TF.CreationDate,2024-04-14T18:32:16+10:00*%
%TF.ProjectId,IC Sprayer,49432053-7072-4617-9965-722e6b696361,rev?*%
%TF.SameCoordinates,Original*%
%TF.FileFunction,Soldermask,Bot*%
%TF.FilePolarity,Negative*%
%FSLAX46Y46*%
G04 Gerber Fmt 4.6, Leading zero omitted, Abs format (unit mm)*
G04 Created by KiCad (PCBNEW 7.0.10) date 2024-04-14 18:32:16*
%MOMM*%
%LPD*%
G01*
G04 APERTURE LIST*
G04 Aperture macros list*
%AMRoundRect*
0 Rectangle with rounded corners*
0 $1 Rounding radius*
0 $2 $3 $4 $5 $6 $7 $8 $9 X,Y pos of 4 corners*
0 Add a 4 corners polygon primitive as box body*
4,1,4,$2,$3,$4,$5,$6,$7,$8,$9,$2,$3,0*
0 Add four circle primitives for the rounded corners*
1,1,$1+$1,$2,$3*
1,1,$1+$1,$4,$5*
1,1,$1+$1,$6,$7*
1,1,$1+$1,$8,$9*
0 Add four rect primitives between the rounded corners*
20,1,$1+$1,$2,$3,$4,$5,0*
20,1,$1+$1,$4,$5,$6,$7,0*
20,1,$1+$1,$6,$7,$8,$9,0*
20,1,$1+$1,$8,$9,$2,$3,0*%
G04 Aperture macros list end*
%ADD10RoundRect,0.250000X0.750000X-0.600000X0.750000X0.600000X-0.750000X0.600000X-0.750000X-0.600000X0*%
%ADD11O,2.000000X1.700000*%
%ADD12RoundRect,0.250000X0.600000X0.725000X-0.600000X0.725000X-0.600000X-0.725000X0.600000X-0.725000X0*%
%ADD13O,1.700000X1.950000*%
%ADD14R,1.600000X1.600000*%
%ADD15C,1.600000*%
%ADD16R,2.600000X2.600000*%
%ADD17C,2.600000*%
%ADD18R,1.905000X2.000000*%
%ADD19O,1.905000X2.000000*%
%ADD20O,1.700000X1.700000*%
%ADD21R,1.700000X1.700000*%
%ADD22C,1.734000*%
%ADD23RoundRect,0.102000X-0.765000X0.765000X-0.765000X-0.765000X0.765000X-0.765000X0.765000X0.765000X0*%
G04 APERTURE END LIST*
D10*
%TO.C,Temp_IN*%
X134620000Y-121880000D03*
D11*
X134620000Y-119380000D03*
%TD*%
D12*
%TO.C,Pot_IN*%
X165100000Y-121920000D03*
D13*
X162600000Y-121920000D03*
X160100000Y-121920000D03*
%TD*%
D14*
%TO.C,REF\u002A\u002A*%
X175260000Y-78780000D03*
D15*
X175260000Y-81280000D03*
%TD*%
D12*
%TO.C,RGB_OUT*%
X182880000Y-121920000D03*
D13*
X180380000Y-121920000D03*
X177880000Y-121920000D03*
%TD*%
D16*
%TO.C,Power_IN*%
X165100000Y-78740000D03*
D17*
X160020000Y-78740000D03*
%TD*%
D18*
%TO.C,Pump_Fet*%
X147320000Y-81280000D03*
D19*
X149860000Y-81280000D03*
X152400000Y-81280000D03*
%TD*%
D16*
%TO.C,Pump_Out*%
X139700000Y-78740000D03*
D17*
X134620000Y-78740000D03*
%TD*%
D10*
%TO.C,Switch_IN*%
X144780000Y-121880000D03*
D11*
X144780000Y-119380000D03*
%TD*%
D20*
%TO.C,Screen*%
X129540000Y-93980000D03*
X129540000Y-106680000D03*
X129540000Y-104140000D03*
D21*
X129540000Y-91440000D03*
D20*
X129540000Y-101600000D03*
X129540000Y-96520000D03*
X129540000Y-99060000D03*
%TD*%
D22*
%TO.C,ESP32*%
X172720000Y-114300000D03*
X147320000Y-114300000D03*
X175260000Y-114300000D03*
X149860000Y-114300000D03*
D23*
X139700000Y-88900000D03*
D22*
X170180000Y-114300000D03*
X162560000Y-114300000D03*
X185420000Y-88900000D03*
X185420000Y-114300000D03*
X182880000Y-114300000D03*
X180340000Y-114300000D03*
X177800000Y-88900000D03*
X180340000Y-88900000D03*
X182880000Y-88900000D03*
X170180000Y-88900000D03*
X175260000Y-88900000D03*
X167640000Y-88900000D03*
X177800000Y-114300000D03*
X167640000Y-114300000D03*
X165100000Y-114300000D03*
X160020000Y-114300000D03*
X157480000Y-114300000D03*
X152400000Y-114300000D03*
X144780000Y-114300000D03*
X142240000Y-114300000D03*
X160020000Y-88900000D03*
X162560000Y-88900000D03*
X165100000Y-88900000D03*
X154940000Y-88900000D03*
X157480000Y-88900000D03*
X149860000Y-88900000D03*
X152400000Y-88900000D03*
X144780000Y-88900000D03*
X147320000Y-88900000D03*
X142240000Y-88900000D03*
X172720000Y-88900000D03*
X154940000Y-114300000D03*
X139700000Y-114300000D03*
%TD*%
M02*
