%TF.GenerationSoftware,KiCad,Pcbnew,7.0.10*%
%TF.CreationDate,2024-04-14T18:32:16+10:00*%
%TF.ProjectId,IC Sprayer,49432053-7072-4617-9965-722e6b696361,rev?*%
%TF.SameCoordinates,Original*%
%TF.FileFunction,Legend,Top*%
%TF.FilePolarity,Positive*%
%FSLAX46Y46*%
G04 Gerber Fmt 4.6, Leading zero omitted, Abs format (unit mm)*
G04 Created by KiCad (PCBNEW 7.0.10) date 2024-04-14 18:32:16*
%MOMM*%
%LPD*%
G01*
G04 APERTURE LIST*
%ADD10C,0.150000*%
%ADD11C,0.120000*%
G04 APERTURE END LIST*
D10*
X136614819Y-123606189D02*
X136614819Y-123034761D01*
X137614819Y-123320475D02*
X136614819Y-123320475D01*
X137567200Y-122320475D02*
X137614819Y-122415713D01*
X137614819Y-122415713D02*
X137614819Y-122606189D01*
X137614819Y-122606189D02*
X137567200Y-122701427D01*
X137567200Y-122701427D02*
X137471961Y-122749046D01*
X137471961Y-122749046D02*
X137091009Y-122749046D01*
X137091009Y-122749046D02*
X136995771Y-122701427D01*
X136995771Y-122701427D02*
X136948152Y-122606189D01*
X136948152Y-122606189D02*
X136948152Y-122415713D01*
X136948152Y-122415713D02*
X136995771Y-122320475D01*
X136995771Y-122320475D02*
X137091009Y-122272856D01*
X137091009Y-122272856D02*
X137186247Y-122272856D01*
X137186247Y-122272856D02*
X137281485Y-122749046D01*
X137614819Y-121844284D02*
X136948152Y-121844284D01*
X137043390Y-121844284D02*
X136995771Y-121796665D01*
X136995771Y-121796665D02*
X136948152Y-121701427D01*
X136948152Y-121701427D02*
X136948152Y-121558570D01*
X136948152Y-121558570D02*
X136995771Y-121463332D01*
X136995771Y-121463332D02*
X137091009Y-121415713D01*
X137091009Y-121415713D02*
X137614819Y-121415713D01*
X137091009Y-121415713D02*
X136995771Y-121368094D01*
X136995771Y-121368094D02*
X136948152Y-121272856D01*
X136948152Y-121272856D02*
X136948152Y-121129999D01*
X136948152Y-121129999D02*
X136995771Y-121034760D01*
X136995771Y-121034760D02*
X137091009Y-120987141D01*
X137091009Y-120987141D02*
X137614819Y-120987141D01*
X136948152Y-120510951D02*
X137948152Y-120510951D01*
X136995771Y-120510951D02*
X136948152Y-120415713D01*
X136948152Y-120415713D02*
X136948152Y-120225237D01*
X136948152Y-120225237D02*
X136995771Y-120129999D01*
X136995771Y-120129999D02*
X137043390Y-120082380D01*
X137043390Y-120082380D02*
X137138628Y-120034761D01*
X137138628Y-120034761D02*
X137424342Y-120034761D01*
X137424342Y-120034761D02*
X137519580Y-120082380D01*
X137519580Y-120082380D02*
X137567200Y-120129999D01*
X137567200Y-120129999D02*
X137614819Y-120225237D01*
X137614819Y-120225237D02*
X137614819Y-120415713D01*
X137614819Y-120415713D02*
X137567200Y-120510951D01*
X137710057Y-119844285D02*
X137710057Y-119082380D01*
X137614819Y-118844284D02*
X136614819Y-118844284D01*
X137614819Y-118368094D02*
X136614819Y-118368094D01*
X136614819Y-118368094D02*
X137614819Y-117796666D01*
X137614819Y-117796666D02*
X136614819Y-117796666D01*
X170886667Y-75004819D02*
X170886667Y-74004819D01*
X170886667Y-74004819D02*
X171124762Y-74004819D01*
X171124762Y-74004819D02*
X171267619Y-74052438D01*
X171267619Y-74052438D02*
X171362857Y-74147676D01*
X171362857Y-74147676D02*
X171410476Y-74242914D01*
X171410476Y-74242914D02*
X171458095Y-74433390D01*
X171458095Y-74433390D02*
X171458095Y-74576247D01*
X171458095Y-74576247D02*
X171410476Y-74766723D01*
X171410476Y-74766723D02*
X171362857Y-74861961D01*
X171362857Y-74861961D02*
X171267619Y-74957200D01*
X171267619Y-74957200D02*
X171124762Y-75004819D01*
X171124762Y-75004819D02*
X170886667Y-75004819D01*
X171886667Y-75004819D02*
X171886667Y-74338152D01*
X171886667Y-74004819D02*
X171839048Y-74052438D01*
X171839048Y-74052438D02*
X171886667Y-74100057D01*
X171886667Y-74100057D02*
X171934286Y-74052438D01*
X171934286Y-74052438D02*
X171886667Y-74004819D01*
X171886667Y-74004819D02*
X171886667Y-74100057D01*
X172505714Y-75004819D02*
X172410476Y-74957200D01*
X172410476Y-74957200D02*
X172362857Y-74909580D01*
X172362857Y-74909580D02*
X172315238Y-74814342D01*
X172315238Y-74814342D02*
X172315238Y-74528628D01*
X172315238Y-74528628D02*
X172362857Y-74433390D01*
X172362857Y-74433390D02*
X172410476Y-74385771D01*
X172410476Y-74385771D02*
X172505714Y-74338152D01*
X172505714Y-74338152D02*
X172648571Y-74338152D01*
X172648571Y-74338152D02*
X172743809Y-74385771D01*
X172743809Y-74385771D02*
X172791428Y-74433390D01*
X172791428Y-74433390D02*
X172839047Y-74528628D01*
X172839047Y-74528628D02*
X172839047Y-74814342D01*
X172839047Y-74814342D02*
X172791428Y-74909580D01*
X172791428Y-74909580D02*
X172743809Y-74957200D01*
X172743809Y-74957200D02*
X172648571Y-75004819D01*
X172648571Y-75004819D02*
X172505714Y-75004819D01*
X173696190Y-75004819D02*
X173696190Y-74004819D01*
X173696190Y-74957200D02*
X173600952Y-75004819D01*
X173600952Y-75004819D02*
X173410476Y-75004819D01*
X173410476Y-75004819D02*
X173315238Y-74957200D01*
X173315238Y-74957200D02*
X173267619Y-74909580D01*
X173267619Y-74909580D02*
X173220000Y-74814342D01*
X173220000Y-74814342D02*
X173220000Y-74528628D01*
X173220000Y-74528628D02*
X173267619Y-74433390D01*
X173267619Y-74433390D02*
X173315238Y-74385771D01*
X173315238Y-74385771D02*
X173410476Y-74338152D01*
X173410476Y-74338152D02*
X173600952Y-74338152D01*
X173600952Y-74338152D02*
X173696190Y-74385771D01*
X174553333Y-74957200D02*
X174458095Y-75004819D01*
X174458095Y-75004819D02*
X174267619Y-75004819D01*
X174267619Y-75004819D02*
X174172381Y-74957200D01*
X174172381Y-74957200D02*
X174124762Y-74861961D01*
X174124762Y-74861961D02*
X174124762Y-74481009D01*
X174124762Y-74481009D02*
X174172381Y-74385771D01*
X174172381Y-74385771D02*
X174267619Y-74338152D01*
X174267619Y-74338152D02*
X174458095Y-74338152D01*
X174458095Y-74338152D02*
X174553333Y-74385771D01*
X174553333Y-74385771D02*
X174600952Y-74481009D01*
X174600952Y-74481009D02*
X174600952Y-74576247D01*
X174600952Y-74576247D02*
X174124762Y-74671485D01*
X154201904Y-91784819D02*
X153725714Y-91784819D01*
X153725714Y-91784819D02*
X153678095Y-92261009D01*
X153678095Y-92261009D02*
X153725714Y-92213390D01*
X153725714Y-92213390D02*
X153820952Y-92165771D01*
X153820952Y-92165771D02*
X154059047Y-92165771D01*
X154059047Y-92165771D02*
X154154285Y-92213390D01*
X154154285Y-92213390D02*
X154201904Y-92261009D01*
X154201904Y-92261009D02*
X154249523Y-92356247D01*
X154249523Y-92356247D02*
X154249523Y-92594342D01*
X154249523Y-92594342D02*
X154201904Y-92689580D01*
X154201904Y-92689580D02*
X154154285Y-92737200D01*
X154154285Y-92737200D02*
X154059047Y-92784819D01*
X154059047Y-92784819D02*
X153820952Y-92784819D01*
X153820952Y-92784819D02*
X153725714Y-92737200D01*
X153725714Y-92737200D02*
X153678095Y-92689580D01*
X154868571Y-91784819D02*
X154963809Y-91784819D01*
X154963809Y-91784819D02*
X155059047Y-91832438D01*
X155059047Y-91832438D02*
X155106666Y-91880057D01*
X155106666Y-91880057D02*
X155154285Y-91975295D01*
X155154285Y-91975295D02*
X155201904Y-92165771D01*
X155201904Y-92165771D02*
X155201904Y-92403866D01*
X155201904Y-92403866D02*
X155154285Y-92594342D01*
X155154285Y-92594342D02*
X155106666Y-92689580D01*
X155106666Y-92689580D02*
X155059047Y-92737200D01*
X155059047Y-92737200D02*
X154963809Y-92784819D01*
X154963809Y-92784819D02*
X154868571Y-92784819D01*
X154868571Y-92784819D02*
X154773333Y-92737200D01*
X154773333Y-92737200D02*
X154725714Y-92689580D01*
X154725714Y-92689580D02*
X154678095Y-92594342D01*
X154678095Y-92594342D02*
X154630476Y-92403866D01*
X154630476Y-92403866D02*
X154630476Y-92165771D01*
X154630476Y-92165771D02*
X154678095Y-91975295D01*
X154678095Y-91975295D02*
X154725714Y-91880057D01*
X154725714Y-91880057D02*
X154773333Y-91832438D01*
X154773333Y-91832438D02*
X154868571Y-91784819D01*
X155630476Y-92784819D02*
X155630476Y-91784819D01*
X156201904Y-92784819D02*
X155773333Y-92213390D01*
X156201904Y-91784819D02*
X155630476Y-92356247D01*
X160497143Y-119834819D02*
X160497143Y-118834819D01*
X160497143Y-118834819D02*
X160878095Y-118834819D01*
X160878095Y-118834819D02*
X160973333Y-118882438D01*
X160973333Y-118882438D02*
X161020952Y-118930057D01*
X161020952Y-118930057D02*
X161068571Y-119025295D01*
X161068571Y-119025295D02*
X161068571Y-119168152D01*
X161068571Y-119168152D02*
X161020952Y-119263390D01*
X161020952Y-119263390D02*
X160973333Y-119311009D01*
X160973333Y-119311009D02*
X160878095Y-119358628D01*
X160878095Y-119358628D02*
X160497143Y-119358628D01*
X161640000Y-119834819D02*
X161544762Y-119787200D01*
X161544762Y-119787200D02*
X161497143Y-119739580D01*
X161497143Y-119739580D02*
X161449524Y-119644342D01*
X161449524Y-119644342D02*
X161449524Y-119358628D01*
X161449524Y-119358628D02*
X161497143Y-119263390D01*
X161497143Y-119263390D02*
X161544762Y-119215771D01*
X161544762Y-119215771D02*
X161640000Y-119168152D01*
X161640000Y-119168152D02*
X161782857Y-119168152D01*
X161782857Y-119168152D02*
X161878095Y-119215771D01*
X161878095Y-119215771D02*
X161925714Y-119263390D01*
X161925714Y-119263390D02*
X161973333Y-119358628D01*
X161973333Y-119358628D02*
X161973333Y-119644342D01*
X161973333Y-119644342D02*
X161925714Y-119739580D01*
X161925714Y-119739580D02*
X161878095Y-119787200D01*
X161878095Y-119787200D02*
X161782857Y-119834819D01*
X161782857Y-119834819D02*
X161640000Y-119834819D01*
X162259048Y-119168152D02*
X162640000Y-119168152D01*
X162401905Y-118834819D02*
X162401905Y-119691961D01*
X162401905Y-119691961D02*
X162449524Y-119787200D01*
X162449524Y-119787200D02*
X162544762Y-119834819D01*
X162544762Y-119834819D02*
X162640000Y-119834819D01*
X162735239Y-119930057D02*
X163497143Y-119930057D01*
X163735239Y-119834819D02*
X163735239Y-118834819D01*
X164211429Y-119834819D02*
X164211429Y-118834819D01*
X164211429Y-118834819D02*
X164782857Y-119834819D01*
X164782857Y-119834819D02*
X164782857Y-118834819D01*
X177879999Y-119624819D02*
X177546666Y-119148628D01*
X177308571Y-119624819D02*
X177308571Y-118624819D01*
X177308571Y-118624819D02*
X177689523Y-118624819D01*
X177689523Y-118624819D02*
X177784761Y-118672438D01*
X177784761Y-118672438D02*
X177832380Y-118720057D01*
X177832380Y-118720057D02*
X177879999Y-118815295D01*
X177879999Y-118815295D02*
X177879999Y-118958152D01*
X177879999Y-118958152D02*
X177832380Y-119053390D01*
X177832380Y-119053390D02*
X177784761Y-119101009D01*
X177784761Y-119101009D02*
X177689523Y-119148628D01*
X177689523Y-119148628D02*
X177308571Y-119148628D01*
X178832380Y-118672438D02*
X178737142Y-118624819D01*
X178737142Y-118624819D02*
X178594285Y-118624819D01*
X178594285Y-118624819D02*
X178451428Y-118672438D01*
X178451428Y-118672438D02*
X178356190Y-118767676D01*
X178356190Y-118767676D02*
X178308571Y-118862914D01*
X178308571Y-118862914D02*
X178260952Y-119053390D01*
X178260952Y-119053390D02*
X178260952Y-119196247D01*
X178260952Y-119196247D02*
X178308571Y-119386723D01*
X178308571Y-119386723D02*
X178356190Y-119481961D01*
X178356190Y-119481961D02*
X178451428Y-119577200D01*
X178451428Y-119577200D02*
X178594285Y-119624819D01*
X178594285Y-119624819D02*
X178689523Y-119624819D01*
X178689523Y-119624819D02*
X178832380Y-119577200D01*
X178832380Y-119577200D02*
X178879999Y-119529580D01*
X178879999Y-119529580D02*
X178879999Y-119196247D01*
X178879999Y-119196247D02*
X178689523Y-119196247D01*
X179641904Y-119101009D02*
X179784761Y-119148628D01*
X179784761Y-119148628D02*
X179832380Y-119196247D01*
X179832380Y-119196247D02*
X179879999Y-119291485D01*
X179879999Y-119291485D02*
X179879999Y-119434342D01*
X179879999Y-119434342D02*
X179832380Y-119529580D01*
X179832380Y-119529580D02*
X179784761Y-119577200D01*
X179784761Y-119577200D02*
X179689523Y-119624819D01*
X179689523Y-119624819D02*
X179308571Y-119624819D01*
X179308571Y-119624819D02*
X179308571Y-118624819D01*
X179308571Y-118624819D02*
X179641904Y-118624819D01*
X179641904Y-118624819D02*
X179737142Y-118672438D01*
X179737142Y-118672438D02*
X179784761Y-118720057D01*
X179784761Y-118720057D02*
X179832380Y-118815295D01*
X179832380Y-118815295D02*
X179832380Y-118910533D01*
X179832380Y-118910533D02*
X179784761Y-119005771D01*
X179784761Y-119005771D02*
X179737142Y-119053390D01*
X179737142Y-119053390D02*
X179641904Y-119101009D01*
X179641904Y-119101009D02*
X179308571Y-119101009D01*
X180070476Y-119720057D02*
X180832380Y-119720057D01*
X181260952Y-118624819D02*
X181451428Y-118624819D01*
X181451428Y-118624819D02*
X181546666Y-118672438D01*
X181546666Y-118672438D02*
X181641904Y-118767676D01*
X181641904Y-118767676D02*
X181689523Y-118958152D01*
X181689523Y-118958152D02*
X181689523Y-119291485D01*
X181689523Y-119291485D02*
X181641904Y-119481961D01*
X181641904Y-119481961D02*
X181546666Y-119577200D01*
X181546666Y-119577200D02*
X181451428Y-119624819D01*
X181451428Y-119624819D02*
X181260952Y-119624819D01*
X181260952Y-119624819D02*
X181165714Y-119577200D01*
X181165714Y-119577200D02*
X181070476Y-119481961D01*
X181070476Y-119481961D02*
X181022857Y-119291485D01*
X181022857Y-119291485D02*
X181022857Y-118958152D01*
X181022857Y-118958152D02*
X181070476Y-118767676D01*
X181070476Y-118767676D02*
X181165714Y-118672438D01*
X181165714Y-118672438D02*
X181260952Y-118624819D01*
X182118095Y-118624819D02*
X182118095Y-119434342D01*
X182118095Y-119434342D02*
X182165714Y-119529580D01*
X182165714Y-119529580D02*
X182213333Y-119577200D01*
X182213333Y-119577200D02*
X182308571Y-119624819D01*
X182308571Y-119624819D02*
X182499047Y-119624819D01*
X182499047Y-119624819D02*
X182594285Y-119577200D01*
X182594285Y-119577200D02*
X182641904Y-119529580D01*
X182641904Y-119529580D02*
X182689523Y-119434342D01*
X182689523Y-119434342D02*
X182689523Y-118624819D01*
X183022857Y-118624819D02*
X183594285Y-118624819D01*
X183308571Y-119624819D02*
X183308571Y-118624819D01*
X161869523Y-105484819D02*
X161298095Y-105484819D01*
X161583809Y-105484819D02*
X161583809Y-104484819D01*
X161583809Y-104484819D02*
X161488571Y-104627676D01*
X161488571Y-104627676D02*
X161393333Y-104722914D01*
X161393333Y-104722914D02*
X161298095Y-104770533D01*
X162488571Y-104484819D02*
X162583809Y-104484819D01*
X162583809Y-104484819D02*
X162679047Y-104532438D01*
X162679047Y-104532438D02*
X162726666Y-104580057D01*
X162726666Y-104580057D02*
X162774285Y-104675295D01*
X162774285Y-104675295D02*
X162821904Y-104865771D01*
X162821904Y-104865771D02*
X162821904Y-105103866D01*
X162821904Y-105103866D02*
X162774285Y-105294342D01*
X162774285Y-105294342D02*
X162726666Y-105389580D01*
X162726666Y-105389580D02*
X162679047Y-105437200D01*
X162679047Y-105437200D02*
X162583809Y-105484819D01*
X162583809Y-105484819D02*
X162488571Y-105484819D01*
X162488571Y-105484819D02*
X162393333Y-105437200D01*
X162393333Y-105437200D02*
X162345714Y-105389580D01*
X162345714Y-105389580D02*
X162298095Y-105294342D01*
X162298095Y-105294342D02*
X162250476Y-105103866D01*
X162250476Y-105103866D02*
X162250476Y-104865771D01*
X162250476Y-104865771D02*
X162298095Y-104675295D01*
X162298095Y-104675295D02*
X162345714Y-104580057D01*
X162345714Y-104580057D02*
X162393333Y-104532438D01*
X162393333Y-104532438D02*
X162488571Y-104484819D01*
X163250476Y-105484819D02*
X163250476Y-104484819D01*
X163821904Y-105484819D02*
X163393333Y-104913390D01*
X163821904Y-104484819D02*
X163250476Y-105056247D01*
X182334819Y-79417381D02*
X182334819Y-79893571D01*
X182334819Y-79893571D02*
X182811009Y-79941190D01*
X182811009Y-79941190D02*
X182763390Y-79893571D01*
X182763390Y-79893571D02*
X182715771Y-79798333D01*
X182715771Y-79798333D02*
X182715771Y-79560238D01*
X182715771Y-79560238D02*
X182763390Y-79465000D01*
X182763390Y-79465000D02*
X182811009Y-79417381D01*
X182811009Y-79417381D02*
X182906247Y-79369762D01*
X182906247Y-79369762D02*
X183144342Y-79369762D01*
X183144342Y-79369762D02*
X183239580Y-79417381D01*
X183239580Y-79417381D02*
X183287200Y-79465000D01*
X183287200Y-79465000D02*
X183334819Y-79560238D01*
X183334819Y-79560238D02*
X183334819Y-79798333D01*
X183334819Y-79798333D02*
X183287200Y-79893571D01*
X183287200Y-79893571D02*
X183239580Y-79941190D01*
X182334819Y-79084047D02*
X183334819Y-78750714D01*
X183334819Y-78750714D02*
X182334819Y-78417381D01*
X183334819Y-76750714D02*
X182858628Y-77084047D01*
X183334819Y-77322142D02*
X182334819Y-77322142D01*
X182334819Y-77322142D02*
X182334819Y-76941190D01*
X182334819Y-76941190D02*
X182382438Y-76845952D01*
X182382438Y-76845952D02*
X182430057Y-76798333D01*
X182430057Y-76798333D02*
X182525295Y-76750714D01*
X182525295Y-76750714D02*
X182668152Y-76750714D01*
X182668152Y-76750714D02*
X182763390Y-76798333D01*
X182763390Y-76798333D02*
X182811009Y-76845952D01*
X182811009Y-76845952D02*
X182858628Y-76941190D01*
X182858628Y-76941190D02*
X182858628Y-77322142D01*
X183287200Y-75941190D02*
X183334819Y-76036428D01*
X183334819Y-76036428D02*
X183334819Y-76226904D01*
X183334819Y-76226904D02*
X183287200Y-76322142D01*
X183287200Y-76322142D02*
X183191961Y-76369761D01*
X183191961Y-76369761D02*
X182811009Y-76369761D01*
X182811009Y-76369761D02*
X182715771Y-76322142D01*
X182715771Y-76322142D02*
X182668152Y-76226904D01*
X182668152Y-76226904D02*
X182668152Y-76036428D01*
X182668152Y-76036428D02*
X182715771Y-75941190D01*
X182715771Y-75941190D02*
X182811009Y-75893571D01*
X182811009Y-75893571D02*
X182906247Y-75893571D01*
X182906247Y-75893571D02*
X183001485Y-76369761D01*
X182668152Y-75036428D02*
X183477676Y-75036428D01*
X183477676Y-75036428D02*
X183572914Y-75084047D01*
X183572914Y-75084047D02*
X183620533Y-75131666D01*
X183620533Y-75131666D02*
X183668152Y-75226904D01*
X183668152Y-75226904D02*
X183668152Y-75369761D01*
X183668152Y-75369761D02*
X183620533Y-75464999D01*
X183287200Y-75036428D02*
X183334819Y-75131666D01*
X183334819Y-75131666D02*
X183334819Y-75322142D01*
X183334819Y-75322142D02*
X183287200Y-75417380D01*
X183287200Y-75417380D02*
X183239580Y-75464999D01*
X183239580Y-75464999D02*
X183144342Y-75512618D01*
X183144342Y-75512618D02*
X182858628Y-75512618D01*
X182858628Y-75512618D02*
X182763390Y-75464999D01*
X182763390Y-75464999D02*
X182715771Y-75417380D01*
X182715771Y-75417380D02*
X182668152Y-75322142D01*
X182668152Y-75322142D02*
X182668152Y-75131666D01*
X182668152Y-75131666D02*
X182715771Y-75036428D01*
X159440952Y-81734819D02*
X159440952Y-80734819D01*
X159440952Y-80734819D02*
X159821904Y-80734819D01*
X159821904Y-80734819D02*
X159917142Y-80782438D01*
X159917142Y-80782438D02*
X159964761Y-80830057D01*
X159964761Y-80830057D02*
X160012380Y-80925295D01*
X160012380Y-80925295D02*
X160012380Y-81068152D01*
X160012380Y-81068152D02*
X159964761Y-81163390D01*
X159964761Y-81163390D02*
X159917142Y-81211009D01*
X159917142Y-81211009D02*
X159821904Y-81258628D01*
X159821904Y-81258628D02*
X159440952Y-81258628D01*
X160583809Y-81734819D02*
X160488571Y-81687200D01*
X160488571Y-81687200D02*
X160440952Y-81639580D01*
X160440952Y-81639580D02*
X160393333Y-81544342D01*
X160393333Y-81544342D02*
X160393333Y-81258628D01*
X160393333Y-81258628D02*
X160440952Y-81163390D01*
X160440952Y-81163390D02*
X160488571Y-81115771D01*
X160488571Y-81115771D02*
X160583809Y-81068152D01*
X160583809Y-81068152D02*
X160726666Y-81068152D01*
X160726666Y-81068152D02*
X160821904Y-81115771D01*
X160821904Y-81115771D02*
X160869523Y-81163390D01*
X160869523Y-81163390D02*
X160917142Y-81258628D01*
X160917142Y-81258628D02*
X160917142Y-81544342D01*
X160917142Y-81544342D02*
X160869523Y-81639580D01*
X160869523Y-81639580D02*
X160821904Y-81687200D01*
X160821904Y-81687200D02*
X160726666Y-81734819D01*
X160726666Y-81734819D02*
X160583809Y-81734819D01*
X161250476Y-81068152D02*
X161440952Y-81734819D01*
X161440952Y-81734819D02*
X161631428Y-81258628D01*
X161631428Y-81258628D02*
X161821904Y-81734819D01*
X161821904Y-81734819D02*
X162012380Y-81068152D01*
X162774285Y-81687200D02*
X162679047Y-81734819D01*
X162679047Y-81734819D02*
X162488571Y-81734819D01*
X162488571Y-81734819D02*
X162393333Y-81687200D01*
X162393333Y-81687200D02*
X162345714Y-81591961D01*
X162345714Y-81591961D02*
X162345714Y-81211009D01*
X162345714Y-81211009D02*
X162393333Y-81115771D01*
X162393333Y-81115771D02*
X162488571Y-81068152D01*
X162488571Y-81068152D02*
X162679047Y-81068152D01*
X162679047Y-81068152D02*
X162774285Y-81115771D01*
X162774285Y-81115771D02*
X162821904Y-81211009D01*
X162821904Y-81211009D02*
X162821904Y-81306247D01*
X162821904Y-81306247D02*
X162345714Y-81401485D01*
X163250476Y-81734819D02*
X163250476Y-81068152D01*
X163250476Y-81258628D02*
X163298095Y-81163390D01*
X163298095Y-81163390D02*
X163345714Y-81115771D01*
X163345714Y-81115771D02*
X163440952Y-81068152D01*
X163440952Y-81068152D02*
X163536190Y-81068152D01*
X163631429Y-81830057D02*
X164393333Y-81830057D01*
X164631429Y-81734819D02*
X164631429Y-80734819D01*
X165107619Y-81734819D02*
X165107619Y-80734819D01*
X165107619Y-80734819D02*
X165679047Y-81734819D01*
X165679047Y-81734819D02*
X165679047Y-80734819D01*
X146502857Y-77464819D02*
X146502857Y-76464819D01*
X146502857Y-76464819D02*
X146883809Y-76464819D01*
X146883809Y-76464819D02*
X146979047Y-76512438D01*
X146979047Y-76512438D02*
X147026666Y-76560057D01*
X147026666Y-76560057D02*
X147074285Y-76655295D01*
X147074285Y-76655295D02*
X147074285Y-76798152D01*
X147074285Y-76798152D02*
X147026666Y-76893390D01*
X147026666Y-76893390D02*
X146979047Y-76941009D01*
X146979047Y-76941009D02*
X146883809Y-76988628D01*
X146883809Y-76988628D02*
X146502857Y-76988628D01*
X147931428Y-76798152D02*
X147931428Y-77464819D01*
X147502857Y-76798152D02*
X147502857Y-77321961D01*
X147502857Y-77321961D02*
X147550476Y-77417200D01*
X147550476Y-77417200D02*
X147645714Y-77464819D01*
X147645714Y-77464819D02*
X147788571Y-77464819D01*
X147788571Y-77464819D02*
X147883809Y-77417200D01*
X147883809Y-77417200D02*
X147931428Y-77369580D01*
X148407619Y-77464819D02*
X148407619Y-76798152D01*
X148407619Y-76893390D02*
X148455238Y-76845771D01*
X148455238Y-76845771D02*
X148550476Y-76798152D01*
X148550476Y-76798152D02*
X148693333Y-76798152D01*
X148693333Y-76798152D02*
X148788571Y-76845771D01*
X148788571Y-76845771D02*
X148836190Y-76941009D01*
X148836190Y-76941009D02*
X148836190Y-77464819D01*
X148836190Y-76941009D02*
X148883809Y-76845771D01*
X148883809Y-76845771D02*
X148979047Y-76798152D01*
X148979047Y-76798152D02*
X149121904Y-76798152D01*
X149121904Y-76798152D02*
X149217143Y-76845771D01*
X149217143Y-76845771D02*
X149264762Y-76941009D01*
X149264762Y-76941009D02*
X149264762Y-77464819D01*
X149740952Y-76798152D02*
X149740952Y-77798152D01*
X149740952Y-76845771D02*
X149836190Y-76798152D01*
X149836190Y-76798152D02*
X150026666Y-76798152D01*
X150026666Y-76798152D02*
X150121904Y-76845771D01*
X150121904Y-76845771D02*
X150169523Y-76893390D01*
X150169523Y-76893390D02*
X150217142Y-76988628D01*
X150217142Y-76988628D02*
X150217142Y-77274342D01*
X150217142Y-77274342D02*
X150169523Y-77369580D01*
X150169523Y-77369580D02*
X150121904Y-77417200D01*
X150121904Y-77417200D02*
X150026666Y-77464819D01*
X150026666Y-77464819D02*
X149836190Y-77464819D01*
X149836190Y-77464819D02*
X149740952Y-77417200D01*
X150407619Y-77560057D02*
X151169523Y-77560057D01*
X151740952Y-76941009D02*
X151407619Y-76941009D01*
X151407619Y-77464819D02*
X151407619Y-76464819D01*
X151407619Y-76464819D02*
X151883809Y-76464819D01*
X152645714Y-77417200D02*
X152550476Y-77464819D01*
X152550476Y-77464819D02*
X152360000Y-77464819D01*
X152360000Y-77464819D02*
X152264762Y-77417200D01*
X152264762Y-77417200D02*
X152217143Y-77321961D01*
X152217143Y-77321961D02*
X152217143Y-76941009D01*
X152217143Y-76941009D02*
X152264762Y-76845771D01*
X152264762Y-76845771D02*
X152360000Y-76798152D01*
X152360000Y-76798152D02*
X152550476Y-76798152D01*
X152550476Y-76798152D02*
X152645714Y-76845771D01*
X152645714Y-76845771D02*
X152693333Y-76941009D01*
X152693333Y-76941009D02*
X152693333Y-77036247D01*
X152693333Y-77036247D02*
X152217143Y-77131485D01*
X152979048Y-76798152D02*
X153360000Y-76798152D01*
X153121905Y-76464819D02*
X153121905Y-77321961D01*
X153121905Y-77321961D02*
X153169524Y-77417200D01*
X153169524Y-77417200D02*
X153264762Y-77464819D01*
X153264762Y-77464819D02*
X153360000Y-77464819D01*
X133683809Y-81734819D02*
X133683809Y-80734819D01*
X133683809Y-80734819D02*
X134064761Y-80734819D01*
X134064761Y-80734819D02*
X134159999Y-80782438D01*
X134159999Y-80782438D02*
X134207618Y-80830057D01*
X134207618Y-80830057D02*
X134255237Y-80925295D01*
X134255237Y-80925295D02*
X134255237Y-81068152D01*
X134255237Y-81068152D02*
X134207618Y-81163390D01*
X134207618Y-81163390D02*
X134159999Y-81211009D01*
X134159999Y-81211009D02*
X134064761Y-81258628D01*
X134064761Y-81258628D02*
X133683809Y-81258628D01*
X135112380Y-81068152D02*
X135112380Y-81734819D01*
X134683809Y-81068152D02*
X134683809Y-81591961D01*
X134683809Y-81591961D02*
X134731428Y-81687200D01*
X134731428Y-81687200D02*
X134826666Y-81734819D01*
X134826666Y-81734819D02*
X134969523Y-81734819D01*
X134969523Y-81734819D02*
X135064761Y-81687200D01*
X135064761Y-81687200D02*
X135112380Y-81639580D01*
X135588571Y-81734819D02*
X135588571Y-81068152D01*
X135588571Y-81163390D02*
X135636190Y-81115771D01*
X135636190Y-81115771D02*
X135731428Y-81068152D01*
X135731428Y-81068152D02*
X135874285Y-81068152D01*
X135874285Y-81068152D02*
X135969523Y-81115771D01*
X135969523Y-81115771D02*
X136017142Y-81211009D01*
X136017142Y-81211009D02*
X136017142Y-81734819D01*
X136017142Y-81211009D02*
X136064761Y-81115771D01*
X136064761Y-81115771D02*
X136159999Y-81068152D01*
X136159999Y-81068152D02*
X136302856Y-81068152D01*
X136302856Y-81068152D02*
X136398095Y-81115771D01*
X136398095Y-81115771D02*
X136445714Y-81211009D01*
X136445714Y-81211009D02*
X136445714Y-81734819D01*
X136921904Y-81068152D02*
X136921904Y-82068152D01*
X136921904Y-81115771D02*
X137017142Y-81068152D01*
X137017142Y-81068152D02*
X137207618Y-81068152D01*
X137207618Y-81068152D02*
X137302856Y-81115771D01*
X137302856Y-81115771D02*
X137350475Y-81163390D01*
X137350475Y-81163390D02*
X137398094Y-81258628D01*
X137398094Y-81258628D02*
X137398094Y-81544342D01*
X137398094Y-81544342D02*
X137350475Y-81639580D01*
X137350475Y-81639580D02*
X137302856Y-81687200D01*
X137302856Y-81687200D02*
X137207618Y-81734819D01*
X137207618Y-81734819D02*
X137017142Y-81734819D01*
X137017142Y-81734819D02*
X136921904Y-81687200D01*
X137588571Y-81830057D02*
X138350475Y-81830057D01*
X138779047Y-80734819D02*
X138969523Y-80734819D01*
X138969523Y-80734819D02*
X139064761Y-80782438D01*
X139064761Y-80782438D02*
X139159999Y-80877676D01*
X139159999Y-80877676D02*
X139207618Y-81068152D01*
X139207618Y-81068152D02*
X139207618Y-81401485D01*
X139207618Y-81401485D02*
X139159999Y-81591961D01*
X139159999Y-81591961D02*
X139064761Y-81687200D01*
X139064761Y-81687200D02*
X138969523Y-81734819D01*
X138969523Y-81734819D02*
X138779047Y-81734819D01*
X138779047Y-81734819D02*
X138683809Y-81687200D01*
X138683809Y-81687200D02*
X138588571Y-81591961D01*
X138588571Y-81591961D02*
X138540952Y-81401485D01*
X138540952Y-81401485D02*
X138540952Y-81068152D01*
X138540952Y-81068152D02*
X138588571Y-80877676D01*
X138588571Y-80877676D02*
X138683809Y-80782438D01*
X138683809Y-80782438D02*
X138779047Y-80734819D01*
X140064761Y-81068152D02*
X140064761Y-81734819D01*
X139636190Y-81068152D02*
X139636190Y-81591961D01*
X139636190Y-81591961D02*
X139683809Y-81687200D01*
X139683809Y-81687200D02*
X139779047Y-81734819D01*
X139779047Y-81734819D02*
X139921904Y-81734819D01*
X139921904Y-81734819D02*
X140017142Y-81687200D01*
X140017142Y-81687200D02*
X140064761Y-81639580D01*
X140398095Y-81068152D02*
X140779047Y-81068152D01*
X140540952Y-80734819D02*
X140540952Y-81591961D01*
X140540952Y-81591961D02*
X140588571Y-81687200D01*
X140588571Y-81687200D02*
X140683809Y-81734819D01*
X140683809Y-81734819D02*
X140779047Y-81734819D01*
X147727200Y-123987142D02*
X147774819Y-123844285D01*
X147774819Y-123844285D02*
X147774819Y-123606190D01*
X147774819Y-123606190D02*
X147727200Y-123510952D01*
X147727200Y-123510952D02*
X147679580Y-123463333D01*
X147679580Y-123463333D02*
X147584342Y-123415714D01*
X147584342Y-123415714D02*
X147489104Y-123415714D01*
X147489104Y-123415714D02*
X147393866Y-123463333D01*
X147393866Y-123463333D02*
X147346247Y-123510952D01*
X147346247Y-123510952D02*
X147298628Y-123606190D01*
X147298628Y-123606190D02*
X147251009Y-123796666D01*
X147251009Y-123796666D02*
X147203390Y-123891904D01*
X147203390Y-123891904D02*
X147155771Y-123939523D01*
X147155771Y-123939523D02*
X147060533Y-123987142D01*
X147060533Y-123987142D02*
X146965295Y-123987142D01*
X146965295Y-123987142D02*
X146870057Y-123939523D01*
X146870057Y-123939523D02*
X146822438Y-123891904D01*
X146822438Y-123891904D02*
X146774819Y-123796666D01*
X146774819Y-123796666D02*
X146774819Y-123558571D01*
X146774819Y-123558571D02*
X146822438Y-123415714D01*
X147108152Y-123082380D02*
X147774819Y-122891904D01*
X147774819Y-122891904D02*
X147298628Y-122701428D01*
X147298628Y-122701428D02*
X147774819Y-122510952D01*
X147774819Y-122510952D02*
X147108152Y-122320476D01*
X147774819Y-121939523D02*
X147108152Y-121939523D01*
X146774819Y-121939523D02*
X146822438Y-121987142D01*
X146822438Y-121987142D02*
X146870057Y-121939523D01*
X146870057Y-121939523D02*
X146822438Y-121891904D01*
X146822438Y-121891904D02*
X146774819Y-121939523D01*
X146774819Y-121939523D02*
X146870057Y-121939523D01*
X147108152Y-121606190D02*
X147108152Y-121225238D01*
X146774819Y-121463333D02*
X147631961Y-121463333D01*
X147631961Y-121463333D02*
X147727200Y-121415714D01*
X147727200Y-121415714D02*
X147774819Y-121320476D01*
X147774819Y-121320476D02*
X147774819Y-121225238D01*
X147727200Y-120463333D02*
X147774819Y-120558571D01*
X147774819Y-120558571D02*
X147774819Y-120749047D01*
X147774819Y-120749047D02*
X147727200Y-120844285D01*
X147727200Y-120844285D02*
X147679580Y-120891904D01*
X147679580Y-120891904D02*
X147584342Y-120939523D01*
X147584342Y-120939523D02*
X147298628Y-120939523D01*
X147298628Y-120939523D02*
X147203390Y-120891904D01*
X147203390Y-120891904D02*
X147155771Y-120844285D01*
X147155771Y-120844285D02*
X147108152Y-120749047D01*
X147108152Y-120749047D02*
X147108152Y-120558571D01*
X147108152Y-120558571D02*
X147155771Y-120463333D01*
X147774819Y-120034761D02*
X146774819Y-120034761D01*
X147774819Y-119606190D02*
X147251009Y-119606190D01*
X147251009Y-119606190D02*
X147155771Y-119653809D01*
X147155771Y-119653809D02*
X147108152Y-119749047D01*
X147108152Y-119749047D02*
X147108152Y-119891904D01*
X147108152Y-119891904D02*
X147155771Y-119987142D01*
X147155771Y-119987142D02*
X147203390Y-120034761D01*
X147870057Y-119368095D02*
X147870057Y-118606190D01*
X147774819Y-118368094D02*
X146774819Y-118368094D01*
X147774819Y-117891904D02*
X146774819Y-117891904D01*
X146774819Y-117891904D02*
X147774819Y-117320476D01*
X147774819Y-117320476D02*
X146774819Y-117320476D01*
D11*
%TO.C,Temp_IN*%
X131870000Y-124730000D02*
X133120000Y-124730000D01*
X132160000Y-124440000D02*
X138130000Y-124440000D01*
X138130000Y-124440000D02*
X138130000Y-116820000D01*
X132170000Y-124430000D02*
X132920000Y-124430000D01*
X132920000Y-124430000D02*
X132920000Y-122630000D01*
X134420000Y-124430000D02*
X134420000Y-123680000D01*
X134420000Y-123680000D02*
X137370000Y-123680000D01*
X137370000Y-123680000D02*
X137370000Y-120630000D01*
X131870000Y-123480000D02*
X131870000Y-124730000D01*
X132170000Y-122630000D02*
X132170000Y-124430000D01*
X132920000Y-122630000D02*
X132170000Y-122630000D01*
X132170000Y-121130000D02*
X132920000Y-121130000D01*
X132920000Y-121130000D02*
X132920000Y-120130000D01*
X132170000Y-120130000D02*
X132170000Y-121130000D01*
X132920000Y-120130000D02*
X132170000Y-120130000D01*
X132170000Y-118630000D02*
X132920000Y-118630000D01*
X132920000Y-118630000D02*
X132920000Y-116830000D01*
X134420000Y-117580000D02*
X137370000Y-117580000D01*
X137370000Y-117580000D02*
X137370000Y-120630000D01*
X132170000Y-116830000D02*
X132170000Y-118630000D01*
X132920000Y-116830000D02*
X132170000Y-116830000D01*
X134420000Y-116830000D02*
X134420000Y-117580000D01*
X132160000Y-116820000D02*
X132160000Y-124440000D01*
X138130000Y-116820000D02*
X132160000Y-116820000D01*
%TO.C,Diode*%
X168320000Y-75240000D02*
X168320000Y-77160000D01*
X168320000Y-77160000D02*
X171180000Y-77160000D01*
X171180000Y-75240000D02*
X168320000Y-75240000D01*
%TO.C,50K*%
X154712936Y-93245000D02*
X155167064Y-93245000D01*
X154712936Y-94715000D02*
X155167064Y-94715000D01*
%TO.C,Pot_IN*%
X167950000Y-124670000D02*
X167950000Y-123420000D01*
X167660000Y-124380000D02*
X167660000Y-118410000D01*
X167660000Y-118410000D02*
X157540000Y-118410000D01*
X167650000Y-124370000D02*
X167650000Y-123620000D01*
X167650000Y-123620000D02*
X165850000Y-123620000D01*
X167650000Y-122120000D02*
X166900000Y-122120000D01*
X166900000Y-122120000D02*
X166900000Y-119170000D01*
X166900000Y-119170000D02*
X162600000Y-119170000D01*
X166700000Y-124670000D02*
X167950000Y-124670000D01*
X165850000Y-124370000D02*
X167650000Y-124370000D01*
X165850000Y-123620000D02*
X165850000Y-124370000D01*
X164350000Y-124370000D02*
X164350000Y-123620000D01*
X164350000Y-123620000D02*
X160850000Y-123620000D01*
X160850000Y-124370000D02*
X164350000Y-124370000D01*
X160850000Y-123620000D02*
X160850000Y-124370000D01*
X159350000Y-124370000D02*
X159350000Y-123620000D01*
X159350000Y-123620000D02*
X157550000Y-123620000D01*
X158300000Y-122120000D02*
X158300000Y-119170000D01*
X158300000Y-119170000D02*
X162600000Y-119170000D01*
X157550000Y-124370000D02*
X159350000Y-124370000D01*
X157550000Y-123620000D02*
X157550000Y-124370000D01*
X157550000Y-122120000D02*
X158300000Y-122120000D01*
X157540000Y-124380000D02*
X167660000Y-124380000D01*
X157540000Y-118410000D02*
X157540000Y-124380000D01*
%TO.C,REF\u002A\u002A*%
X177099000Y-76529759D02*
X177099000Y-77159759D01*
X177414000Y-76844759D02*
X176784000Y-76844759D01*
X178490000Y-80030000D02*
X172030000Y-80030000D01*
X178490000Y-80070000D02*
X172030000Y-80070000D01*
X178490000Y-80110000D02*
X172030000Y-80110000D01*
X178488000Y-80150000D02*
X172032000Y-80150000D01*
X178487000Y-80190000D02*
X172033000Y-80190000D01*
X178484000Y-80230000D02*
X172036000Y-80230000D01*
X178482000Y-80270000D02*
X176300000Y-80270000D01*
X174220000Y-80270000D02*
X172038000Y-80270000D01*
X178478000Y-80310000D02*
X176300000Y-80310000D01*
X174220000Y-80310000D02*
X172042000Y-80310000D01*
X178475000Y-80350000D02*
X176300000Y-80350000D01*
X174220000Y-80350000D02*
X172045000Y-80350000D01*
X178471000Y-80390000D02*
X176300000Y-80390000D01*
X174220000Y-80390000D02*
X172049000Y-80390000D01*
X178466000Y-80430000D02*
X176300000Y-80430000D01*
X174220000Y-80430000D02*
X172054000Y-80430000D01*
X178461000Y-80470000D02*
X176300000Y-80470000D01*
X174220000Y-80470000D02*
X172059000Y-80470000D01*
X178455000Y-80510000D02*
X176300000Y-80510000D01*
X174220000Y-80510000D02*
X172065000Y-80510000D01*
X178449000Y-80550000D02*
X176300000Y-80550000D01*
X174220000Y-80550000D02*
X172071000Y-80550000D01*
X178442000Y-80590000D02*
X176300000Y-80590000D01*
X174220000Y-80590000D02*
X172078000Y-80590000D01*
X178435000Y-80630000D02*
X176300000Y-80630000D01*
X174220000Y-80630000D02*
X172085000Y-80630000D01*
X178427000Y-80670000D02*
X176300000Y-80670000D01*
X174220000Y-80670000D02*
X172093000Y-80670000D01*
X178419000Y-80710000D02*
X176300000Y-80710000D01*
X174220000Y-80710000D02*
X172101000Y-80710000D01*
X178410000Y-80751000D02*
X176300000Y-80751000D01*
X174220000Y-80751000D02*
X172110000Y-80751000D01*
X178401000Y-80791000D02*
X176300000Y-80791000D01*
X174220000Y-80791000D02*
X172119000Y-80791000D01*
X178391000Y-80831000D02*
X176300000Y-80831000D01*
X174220000Y-80831000D02*
X172129000Y-80831000D01*
X178381000Y-80871000D02*
X176300000Y-80871000D01*
X174220000Y-80871000D02*
X172139000Y-80871000D01*
X178370000Y-80911000D02*
X176300000Y-80911000D01*
X174220000Y-80911000D02*
X172150000Y-80911000D01*
X178358000Y-80951000D02*
X176300000Y-80951000D01*
X174220000Y-80951000D02*
X172162000Y-80951000D01*
X178346000Y-80991000D02*
X176300000Y-80991000D01*
X174220000Y-80991000D02*
X172174000Y-80991000D01*
X178334000Y-81031000D02*
X176300000Y-81031000D01*
X174220000Y-81031000D02*
X172186000Y-81031000D01*
X178321000Y-81071000D02*
X176300000Y-81071000D01*
X174220000Y-81071000D02*
X172199000Y-81071000D01*
X178307000Y-81111000D02*
X176300000Y-81111000D01*
X174220000Y-81111000D02*
X172213000Y-81111000D01*
X178293000Y-81151000D02*
X176300000Y-81151000D01*
X174220000Y-81151000D02*
X172227000Y-81151000D01*
X178278000Y-81191000D02*
X176300000Y-81191000D01*
X174220000Y-81191000D02*
X172242000Y-81191000D01*
X178262000Y-81231000D02*
X176300000Y-81231000D01*
X174220000Y-81231000D02*
X172258000Y-81231000D01*
X178246000Y-81271000D02*
X176300000Y-81271000D01*
X174220000Y-81271000D02*
X172274000Y-81271000D01*
X178230000Y-81311000D02*
X176300000Y-81311000D01*
X174220000Y-81311000D02*
X172290000Y-81311000D01*
X178212000Y-81351000D02*
X176300000Y-81351000D01*
X174220000Y-81351000D02*
X172308000Y-81351000D01*
X178194000Y-81391000D02*
X176300000Y-81391000D01*
X174220000Y-81391000D02*
X172326000Y-81391000D01*
X178176000Y-81431000D02*
X176300000Y-81431000D01*
X174220000Y-81431000D02*
X172344000Y-81431000D01*
X178156000Y-81471000D02*
X176300000Y-81471000D01*
X174220000Y-81471000D02*
X172364000Y-81471000D01*
X178136000Y-81511000D02*
X176300000Y-81511000D01*
X174220000Y-81511000D02*
X172384000Y-81511000D01*
X178116000Y-81551000D02*
X176300000Y-81551000D01*
X174220000Y-81551000D02*
X172404000Y-81551000D01*
X178094000Y-81591000D02*
X176300000Y-81591000D01*
X174220000Y-81591000D02*
X172426000Y-81591000D01*
X178072000Y-81631000D02*
X176300000Y-81631000D01*
X174220000Y-81631000D02*
X172448000Y-81631000D01*
X178050000Y-81671000D02*
X176300000Y-81671000D01*
X174220000Y-81671000D02*
X172470000Y-81671000D01*
X178026000Y-81711000D02*
X176300000Y-81711000D01*
X174220000Y-81711000D02*
X172494000Y-81711000D01*
X178002000Y-81751000D02*
X176300000Y-81751000D01*
X174220000Y-81751000D02*
X172518000Y-81751000D01*
X177976000Y-81791000D02*
X176300000Y-81791000D01*
X174220000Y-81791000D02*
X172544000Y-81791000D01*
X177950000Y-81831000D02*
X176300000Y-81831000D01*
X174220000Y-81831000D02*
X172570000Y-81831000D01*
X177924000Y-81871000D02*
X176300000Y-81871000D01*
X174220000Y-81871000D02*
X172596000Y-81871000D01*
X177896000Y-81911000D02*
X176300000Y-81911000D01*
X174220000Y-81911000D02*
X172624000Y-81911000D01*
X177867000Y-81951000D02*
X176300000Y-81951000D01*
X174220000Y-81951000D02*
X172653000Y-81951000D01*
X177838000Y-81991000D02*
X176300000Y-81991000D01*
X174220000Y-81991000D02*
X172682000Y-81991000D01*
X177808000Y-82031000D02*
X176300000Y-82031000D01*
X174220000Y-82031000D02*
X172712000Y-82031000D01*
X177776000Y-82071000D02*
X176300000Y-82071000D01*
X174220000Y-82071000D02*
X172744000Y-82071000D01*
X177744000Y-82111000D02*
X176300000Y-82111000D01*
X174220000Y-82111000D02*
X172776000Y-82111000D01*
X177710000Y-82151000D02*
X176300000Y-82151000D01*
X174220000Y-82151000D02*
X172810000Y-82151000D01*
X177676000Y-82191000D02*
X176300000Y-82191000D01*
X174220000Y-82191000D02*
X172844000Y-82191000D01*
X177640000Y-82231000D02*
X176300000Y-82231000D01*
X174220000Y-82231000D02*
X172880000Y-82231000D01*
X177603000Y-82271000D02*
X176300000Y-82271000D01*
X174220000Y-82271000D02*
X172917000Y-82271000D01*
X177565000Y-82311000D02*
X176300000Y-82311000D01*
X174220000Y-82311000D02*
X172955000Y-82311000D01*
X177525000Y-82351000D02*
X172995000Y-82351000D01*
X177484000Y-82391000D02*
X173036000Y-82391000D01*
X177442000Y-82431000D02*
X173078000Y-82431000D01*
X177397000Y-82471000D02*
X173123000Y-82471000D01*
X177352000Y-82511000D02*
X173168000Y-82511000D01*
X177304000Y-82551000D02*
X173216000Y-82551000D01*
X177255000Y-82591000D02*
X173265000Y-82591000D01*
X177204000Y-82631000D02*
X173316000Y-82631000D01*
X177150000Y-82671000D02*
X173370000Y-82671000D01*
X177094000Y-82711000D02*
X173426000Y-82711000D01*
X177036000Y-82751000D02*
X173484000Y-82751000D01*
X176974000Y-82791000D02*
X173546000Y-82791000D01*
X176910000Y-82831000D02*
X173610000Y-82831000D01*
X176841000Y-82871000D02*
X173679000Y-82871000D01*
X176769000Y-82911000D02*
X173751000Y-82911000D01*
X176692000Y-82951000D02*
X173828000Y-82951000D01*
X176610000Y-82991000D02*
X173910000Y-82991000D01*
X176522000Y-83031000D02*
X173998000Y-83031000D01*
X176425000Y-83071000D02*
X174095000Y-83071000D01*
X176319000Y-83111000D02*
X174201000Y-83111000D01*
X176200000Y-83151000D02*
X174320000Y-83151000D01*
X176062000Y-83191000D02*
X174458000Y-83191000D01*
X175893000Y-83231000D02*
X174627000Y-83231000D01*
X175662000Y-83271000D02*
X174858000Y-83271000D01*
X178530000Y-80030000D02*
G75*
G03*
X171990000Y-80030000I-3270000J0D01*
G01*
X171990000Y-80030000D02*
G75*
G03*
X178530000Y-80030000I3270000J0D01*
G01*
%TO.C,RGB_OUT*%
X185730000Y-124670000D02*
X185730000Y-123420000D01*
X185440000Y-124380000D02*
X185440000Y-118410000D01*
X185440000Y-118410000D02*
X175320000Y-118410000D01*
X185430000Y-124370000D02*
X185430000Y-123620000D01*
X185430000Y-123620000D02*
X183630000Y-123620000D01*
X185430000Y-122120000D02*
X184680000Y-122120000D01*
X184680000Y-122120000D02*
X184680000Y-119170000D01*
X184680000Y-119170000D02*
X180380000Y-119170000D01*
X184480000Y-124670000D02*
X185730000Y-124670000D01*
X183630000Y-124370000D02*
X185430000Y-124370000D01*
X183630000Y-123620000D02*
X183630000Y-124370000D01*
X182130000Y-124370000D02*
X182130000Y-123620000D01*
X182130000Y-123620000D02*
X178630000Y-123620000D01*
X178630000Y-124370000D02*
X182130000Y-124370000D01*
X178630000Y-123620000D02*
X178630000Y-124370000D01*
X177130000Y-124370000D02*
X177130000Y-123620000D01*
X177130000Y-123620000D02*
X175330000Y-123620000D01*
X176080000Y-122120000D02*
X176080000Y-119170000D01*
X176080000Y-119170000D02*
X180380000Y-119170000D01*
X175330000Y-124370000D02*
X177130000Y-124370000D01*
X175330000Y-123620000D02*
X175330000Y-124370000D01*
X175330000Y-122120000D02*
X176080000Y-122120000D01*
X175320000Y-124380000D02*
X185440000Y-124380000D01*
X175320000Y-118410000D02*
X175320000Y-124380000D01*
%TO.C,10K*%
X162332936Y-105945000D02*
X162787064Y-105945000D01*
X162332936Y-107415000D02*
X162787064Y-107415000D01*
%TO.C,5V Reg*%
X182525000Y-74275000D02*
X182525000Y-74545000D01*
X182525000Y-74545000D02*
X179695000Y-74545000D01*
X182525000Y-80905000D02*
X181425000Y-80905000D01*
X182525000Y-81175000D02*
X182525000Y-80905000D01*
X188945000Y-74275000D02*
X182525000Y-74275000D01*
X188945000Y-81175000D02*
X182525000Y-81175000D01*
%TO.C,Power_IN*%
X167940000Y-74580000D02*
X167940000Y-73840000D01*
X167940000Y-73840000D02*
X167440000Y-73840000D01*
X167700000Y-84001000D02*
X167700000Y-74080000D01*
X167700000Y-84001000D02*
X157420000Y-84001000D01*
X167700000Y-81041000D02*
X157420000Y-81041000D01*
X167700000Y-76140000D02*
X157420000Y-76140000D01*
X167700000Y-74640000D02*
X157420000Y-74640000D01*
X167700000Y-74080000D02*
X157420000Y-74080000D01*
X161247000Y-77717000D02*
X161294000Y-77671000D01*
X161054000Y-77501000D02*
X161089000Y-77466000D01*
X158950000Y-80015000D02*
X158985000Y-79979000D01*
X158745000Y-79809000D02*
X158792000Y-79763000D01*
X157420000Y-84001000D02*
X157420000Y-74080000D01*
X166634999Y-79423999D02*
G75*
G03*
X166635426Y-78056958I-1534992J684000D01*
G01*
X164416001Y-80274999D02*
G75*
G03*
X165783042Y-80275426I684000J1534992D01*
G01*
X165784000Y-77205001D02*
G75*
G03*
X165071195Y-77059748I-683999J-1535000D01*
G01*
X165100000Y-77060001D02*
G75*
G03*
X164416682Y-77205245I0J-1679999D01*
G01*
X163565000Y-78056000D02*
G75*
G03*
X163564574Y-79423042I1535000J-684000D01*
G01*
X161700000Y-78740000D02*
G75*
G03*
X158340000Y-78740000I-1680000J0D01*
G01*
X158340000Y-78740000D02*
G75*
G03*
X161700000Y-78740000I1680000J0D01*
G01*
%TO.C,Pump_Fet*%
X144740000Y-78010000D02*
X144740000Y-82651000D01*
X144740000Y-78010000D02*
X154980000Y-78010000D01*
X144740000Y-79520000D02*
X154980000Y-79520000D01*
X144740000Y-82651000D02*
X154980000Y-82651000D01*
X148010000Y-78010000D02*
X148010000Y-79520000D01*
X151711000Y-78010000D02*
X151711000Y-79520000D01*
X154980000Y-78010000D02*
X154980000Y-82651000D01*
%TO.C,Pump_Out*%
X142540000Y-74580000D02*
X142540000Y-73840000D01*
X142540000Y-73840000D02*
X142040000Y-73840000D01*
X142300000Y-84001000D02*
X142300000Y-74080000D01*
X142300000Y-84001000D02*
X132020000Y-84001000D01*
X142300000Y-81041000D02*
X132020000Y-81041000D01*
X142300000Y-76140000D02*
X132020000Y-76140000D01*
X142300000Y-74640000D02*
X132020000Y-74640000D01*
X142300000Y-74080000D02*
X132020000Y-74080000D01*
X135847000Y-77717000D02*
X135894000Y-77671000D01*
X135654000Y-77501000D02*
X135689000Y-77466000D01*
X133550000Y-80015000D02*
X133585000Y-79979000D01*
X133345000Y-79809000D02*
X133392000Y-79763000D01*
X132020000Y-84001000D02*
X132020000Y-74080000D01*
X141234999Y-79423999D02*
G75*
G03*
X141235426Y-78056958I-1534992J684000D01*
G01*
X139016001Y-80274999D02*
G75*
G03*
X140383042Y-80275426I684000J1534992D01*
G01*
X140384000Y-77205001D02*
G75*
G03*
X139671195Y-77059748I-683999J-1535000D01*
G01*
X139700000Y-77060001D02*
G75*
G03*
X139016682Y-77205245I0J-1679999D01*
G01*
X138165000Y-78056000D02*
G75*
G03*
X138164574Y-79423042I1535000J-684000D01*
G01*
X136300000Y-78740000D02*
G75*
G03*
X132940000Y-78740000I-1680000J0D01*
G01*
X132940000Y-78740000D02*
G75*
G03*
X136300000Y-78740000I1680000J0D01*
G01*
%TO.C,Switch_IN*%
X142030000Y-124730000D02*
X143280000Y-124730000D01*
X142320000Y-124440000D02*
X148290000Y-124440000D01*
X148290000Y-124440000D02*
X148290000Y-116820000D01*
X142330000Y-124430000D02*
X143080000Y-124430000D01*
X143080000Y-124430000D02*
X143080000Y-122630000D01*
X144580000Y-124430000D02*
X144580000Y-123680000D01*
X144580000Y-123680000D02*
X147530000Y-123680000D01*
X147530000Y-123680000D02*
X147530000Y-120630000D01*
X142030000Y-123480000D02*
X142030000Y-124730000D01*
X142330000Y-122630000D02*
X142330000Y-124430000D01*
X143080000Y-122630000D02*
X142330000Y-122630000D01*
X142330000Y-121130000D02*
X143080000Y-121130000D01*
X143080000Y-121130000D02*
X143080000Y-120130000D01*
X142330000Y-120130000D02*
X142330000Y-121130000D01*
X143080000Y-120130000D02*
X142330000Y-120130000D01*
X142330000Y-118630000D02*
X143080000Y-118630000D01*
X143080000Y-118630000D02*
X143080000Y-116830000D01*
X144580000Y-117580000D02*
X147530000Y-117580000D01*
X147530000Y-117580000D02*
X147530000Y-120630000D01*
X142330000Y-116830000D02*
X142330000Y-118630000D01*
X143080000Y-116830000D02*
X142330000Y-116830000D01*
X144580000Y-116830000D02*
X144580000Y-117580000D01*
X142320000Y-116820000D02*
X142320000Y-124440000D01*
X148290000Y-116820000D02*
X142320000Y-116820000D01*
%TD*%
M02*
